<?xml version="1.0" standalone="no"?>
<!DOCTYPE svg PUBLIC "-//W3C//DTD SVG 20010904//EN"
 "http://www.w3.org/TR/2001/REC-SVG-20010904/DTD/svg10.dtd">
<svg xmlns="http://www.w3.org/2000/svg" version="1.0" width="1140.000000pt" height="379.000000pt" viewBox="0 0 1140.000000 379.000000" preserveAspectRatio="xMidYMid meet">

<g transform="translate(0.000000,379.000000) scale(0.100000,-0.100000)" fill="#000000" stroke="none" style="&#10;    fill: white;&#10;">
<path d="M7828 3783 c-10 -2 -18 -8 -18 -12 0 -5 -13 -11 -29 -14 -28 -6 -92 -61 -133 -114 -46 -60 -45 -15 -42 -1760 l4 -1641 37 -63 c43 -74 80 -111 148 -147 l50 -27 1645 -3 1645 -2 63 31 c35 17 66 37 69 45 3 8 11 14 18 14 7 0 23 17 36 37 13 21 35 56 48 78 l26 40 0 1640 c0 1587 -1 1642 -19 1695 -23 67 -97 145 -174 183 l-54 27 -1651 -1 c-909 -1 -1660 -3 -1669 -6z m2583 -955 c0 -13 0 -403 -1 -868 0 -465 0 -866 0 -892 l0 -48 -160 0 -160 0 0 755 0 755 -750 0 -750 0 0 160 0 160 910 0 910 0 1 -22z m-541 -1178 l0 -641 -157 3 -158 3 -3 478 -2 477 -480 0 -480 0 0 160 0 160 640 0 640 0 0 -640z m-582 -284 c2 -234 -1 -333 -9 -342 -9 -11 -61 -14 -254 -14 -133 0 -283 3 -333 6 l-92 7 0 339 0 338 343 -2 342 -3 3 -329z" style="&#10;    fill: red;&#10;"/>
<path d="M418 2550 c-109 -28 -218 -108 -292 -217 -93 -137 -133 -310 -123 -528 14 -300 124 -492 345 -602 68 -34 80 -37 180 -40 91 -3 116 0 172 19 l65 23 3 176 2 177 -47 -25 c-41 -21 -58 -24 -111 -20 -80 6 -124 39 -167 123 -29 57 -30 65 -33 212 -3 133 -1 160 17 213 26 79 63 126 115 150 62 28 114 24 209 -16 16 -7 17 3 15 160 l-3 168 -40 14 c-48 18 -254 26 -307 13z"/>
<path d="M877 2534 c-4 -4 -7 -310 -7 -681 l0 -673 193 2 192 3 3 263 2 263 73 -3 72 -3 3 -263 2 -262 188 2 187 3 3 678 2 677 -190 0 -190 0 0 -240 0 -240 -75 0 -75 0 -2 238 -3 237 -186 3 c-102 1 -188 -1 -192 -4z"/>
<path d="M1950 1860 l0 -680 189 0 189 0 7 193 c3 105 5 410 3 677 l-3 485 -192 3 -193 2 0 -680z"/>
<path d="M2420 2365 l0 -175 110 0 110 0 0 -505 0 -505 193 2 192 3 3 504 2 504 110 -5 110 -6 0 179 0 179 -415 0 -415 0 0 -175z"/>
<path d="M3320 1860 l0 -680 193 2 192 3 5 275 5 274 83 -264 c46 -146 89 -271 94 -277 8 -10 92 -13 359 -13 l349 0 4 23 c5 22 26 161 26 171 0 3 47 6 105 6 58 0 105 -3 105 -7 0 -11 19 -132 26 -165 l6 -28 184 0 c169 0 184 1 184 18 0 9 -31 157 -69 327 -73 324 -200 918 -209 970 -3 17 -10 33 -16 37 -6 4 -105 8 -219 8 -158 0 -208 -3 -211 -12 -2 -7 -31 -146 -65 -308 -98 -465 -194 -881 -202 -873 -6 6 -136 331 -213 532 -12 32 -11 40 19 105 80 174 245 545 245 550 0 3 -87 6 -194 6 -143 0 -196 -3 -203 -12 -5 -7 -28 -67 -51 -133 -23 -66 -65 -178 -92 -250 l-49 -130 -1 263 0 262 -195 0 -195 0 0 -680z m1454 7 c14 -104 24 -192 21 -198 -7 -10 -125 -13 -125 -2 0 15 52 379 56 392 10 33 22 -14 48 -192z"/>
<path d="M5298 2534 c-4 -3 -2 -1213 2 -1347 0 -4 84 -6 188 -5 l187 3 5 225 c3 148 8 218 14 206 5 -11 39 -112 76 -225 l66 -206 379 0 380 0 14 98 14 97 107 0 107 0 11 -90 c6 -50 14 -95 17 -100 9 -15 375 -13 375 1 0 6 -45 214 -100 463 -54 248 -120 545 -145 660 -25 114 -48 212 -51 217 -7 12 -421 12 -428 0 -8 -13 -163 -710 -226 -1016 -28 -137 -54 -253 -57 -259 -3 -5 -15 9 -26 30 -42 81 -217 476 -217 488 0 8 14 19 31 27 56 23 133 108 158 174 19 51 22 75 19 165 -3 90 -7 114 -31 165 -33 71 -106 143 -180 180 -90 43 -184 55 -446 55 -131 0 -240 -3 -243 -6z m437 -298 c49 -21 75 -68 75 -139 0 -79 -20 -124 -64 -142 -68 -28 -66 -32 -66 140 0 100 4 155 10 155 6 0 26 -6 45 -14z m1031 -359 c17 -111 29 -205 27 -209 -2 -5 -31 -8 -65 -8 l-60 0 4 48 c7 84 53 380 58 375 3 -2 19 -95 36 -206z"/>
<path d="M5123 872 l-20 -27 -64 23 c-167 58 -313 1 -350 -138 -28 -108 17 -201 136 -276 250 -160 275 -183 275 -254 0 -111 -132 -164 -251 -102 -59 31 -94 74 -109 136 -12 49 -22 68 -38 74 -9 3 -12 -36 -12 -147 0 -128 2 -151 15 -151 8 0 15 4 15 9 0 5 7 16 15 24 13 13 24 12 92 -9 146 -45 239 -30 320 53 62 63 81 127 63 209 -21 94 -54 126 -250 240 -113 66 -170 122 -170 168 0 106 108 158 218 105 52 -26 94 -86 112 -160 9 -37 16 -49 29 -47 14 3 16 23 19 144 2 114 0 143 -11 147 -8 3 -23 -6 -34 -21z"/>
<path d="M148 873 c-33 -8 -20 -33 17 -33 22 0 43 -8 55 -20 19 -19 20 -34 21 -242 1 -352 11 -416 81 -487 56 -57 102 -74 210 -79 124 -5 182 12 248 77 75 72 82 104 87 429 5 251 7 274 25 297 37 47 161 28 208 -33 19 -23 20 -41 20 -346 0 -362 0 -361 -71 -372 -23 -4 -39 -12 -39 -20 0 -11 28 -14 140 -14 112 0 140 3 140 14 0 8 -16 16 -41 20 -65 10 -69 29 -69 336 0 143 4 260 9 260 4 0 118 -144 252 -320 153 -201 250 -320 261 -320 16 0 18 29 20 389 3 366 4 390 22 410 12 13 31 21 53 21 27 0 33 4 33 21 0 20 -4 21 -52 15 -29 -3 -92 -6 -140 -6 -72 0 -88 -3 -88 -15 0 -10 10 -15 34 -15 25 0 40 -7 55 -26 20 -25 21 -39 21 -280 0 -140 -3 -254 -7 -253 -9 0 -144 173 -332 421 l-126 168 -252 0 c-218 0 -253 -2 -253 -15 0 -10 10 -15 33 -15 77 -1 82 -20 81 -310 -1 -330 -12 -368 -115 -424 -42 -23 -65 -29 -118 -29 -75 -1 -115 16 -154 63 -42 49 -49 110 -45 403 3 252 4 269 22 283 11 8 35 14 53 14 38 0 46 24 11 34 -26 7 -284 6 -310 -1z"/>
<path d="M1870 862 c0 -15 9 -21 41 -25 23 -3 46 -10 51 -15 5 -5 14 -43 19 -83 13 -96 1 -609 -15 -641 -8 -15 -25 -26 -54 -32 -24 -6 -42 -16 -42 -23 0 -11 34 -13 173 -11 179 3 201 10 118 38 -38 13 -46 20 -54 48 -4 19 -7 180 -5 359 l3 325 24 19 c13 10 39 19 58 19 27 0 34 4 31 18 -3 15 -21 17 -176 20 -163 2 -172 1 -172 -16z"/>
<path d="M2247 873 c-16 -15 -5 -31 26 -37 19 -3 43 -16 54 -29 17 -19 92 -195 299 -705 26 -64 42 -92 54 -92 17 0 50 80 226 542 85 224 103 259 149 281 65 31 40 42 -96 42 -134 0 -154 -10 -90 -43 19 -9 39 -24 44 -32 6 -10 -11 -68 -56 -190 -105 -283 -140 -370 -147 -370 -15 0 -220 513 -220 550 0 23 36 50 67 50 25 0 29 10 11 28 -13 13 -309 18 -321 5z"/>
<path d="M3120 860 c0 -16 7 -20 33 -20 22 0 41 -8 53 -21 18 -20 19 -41 19 -371 0 -338 -1 -350 -20 -364 -11 -8 -31 -17 -45 -20 -44 -10 -51 -14 -45 -24 8 -13 612 -14 620 0 3 5 17 47 31 92 13 46 27 91 30 100 4 13 0 18 -13 18 -11 0 -28 -19 -46 -53 -16 -29 -46 -65 -69 -81 -38 -28 -43 -28 -169 -30 -105 -1 -131 2 -139 14 -5 8 -10 88 -10 178 l0 162 105 0 c133 0 160 -12 172 -72 6 -28 15 -44 26 -46 15 -3 17 10 17 147 0 129 -2 151 -15 151 -16 0 -19 -5 -29 -53 -4 -15 -16 -37 -27 -48 -18 -18 -31 -19 -132 -17 l-112 3 0 155 0 155 110 3 c61 2 125 0 144 -3 43 -8 77 -43 91 -94 6 -24 17 -41 25 -41 17 0 20 55 9 148 l-7 52 -303 0 c-297 0 -304 0 -304 -20z"/>
<path d="M3840 861 c0 -17 6 -21 29 -21 16 0 39 -9 52 -19 l24 -19 3 -334 c2 -183 0 -343 -3 -355 -6 -24 -51 -53 -83 -53 -11 0 -22 -7 -26 -15 -5 -13 18 -15 169 -15 142 0 175 3 175 14 0 8 -16 16 -39 20 -62 10 -66 20 -69 198 l-4 158 34 0 c18 0 38 -4 44 -8 5 -4 36 -47 68 -97 33 -49 90 -134 128 -187 l69 -98 110 0 c99 0 110 2 107 17 -2 10 -16 20 -33 23 -41 9 -86 33 -112 62 -11 12 -64 87 -116 164 l-95 141 40 12 c93 28 154 124 146 226 -6 77 -45 131 -120 169 -57 28 -60 28 -278 34 -220 5 -220 5 -220 -17z m389 -66 c39 -19 78 -68 86 -106 26 -115 -60 -217 -188 -222 l-52 -2 -3 167 c-3 188 -9 175 81 177 26 0 61 -6 76 -14z"/>
<path d="M5300 860 c0 -14 7 -20 23 -20 42 0 65 -12 77 -39 8 -19 10 -130 8 -363 -3 -371 -2 -364 -69 -374 -24 -4 -39 -12 -39 -21 0 -11 30 -13 172 -11 118 2 173 7 175 15 2 6 -12 14 -36 18 -81 13 -76 -10 -76 383 0 330 1 351 19 371 13 14 31 21 58 21 25 0 38 5 38 13 0 14 -133 27 -282 27 -61 0 -68 -2 -68 -20z"/>
<path d="M5710 843 c0 -21 -3 -68 -7 -105 -5 -57 -3 -68 10 -68 9 0 22 20 33 51 28 76 51 90 143 87 l76 -3 3 -344 c3 -389 3 -386 -68 -397 -24 -4 -40 -12 -40 -20 0 -11 33 -14 170 -14 140 0 170 3 170 14 0 9 -15 17 -39 21 -22 4 -46 14 -53 22 -10 12 -14 97 -16 370 l-3 353 73 0 c102 0 137 -19 162 -87 36 -103 58 -46 40 105 l-7 52 -323 0 -324 0 0 -37z"/>
<path d="M6400 861 c0 -13 9 -21 28 -26 50 -11 69 -35 269 -364 l63 -104 0 -118 c0 -144 -8 -165 -69 -183 -25 -7 -47 -18 -49 -24 -3 -9 43 -12 172 -12 145 0 176 2 176 14 0 9 -15 17 -39 21 -22 4 -45 13 -52 22 -9 10 -14 63 -17 156 l-4 142 83 140 c154 262 197 315 259 315 15 0 20 5 18 18 -3 15 -19 17 -137 20 -101 2 -136 -1 -143 -10 -13 -21 -9 -28 15 -28 27 0 57 -28 57 -54 0 -33 -161 -316 -180 -316 -11 0 -121 172 -164 257 l-36 72 22 21 c12 11 35 20 51 20 22 0 28 4 25 18 -3 15 -21 17 -176 20 -165 2 -172 2 -172 -17z"/>
</g>
</svg>